HIERARCHY
ROOT Hips
{
    OFFSET 0.0 0.0 0.0
    CHANNELS 6 Xposition Yposition Zposition Zrotation Xrotation Yrotation
    JOINT LHipJoint
    {
        OFFSET 0.1 0.0 0.0
        CHANNELS 3 Zrotation Xrotation Yrotation
        JOINT LeftHip
        {
            OFFSET 0.10700888931751251 0.0 0.0
            CHANNELS 3 Zrotation Xrotation Yrotation
            JOINT LeftKnee
            {
                OFFSET 0.0 0.0 -0.2152610421180725
                CHANNELS 3 Zrotation Xrotation Yrotation
                JOINT LeftAnkle
                {
                    OFFSET 0.0 0.0 -0.4577053189277649
                    CHANNELS 3 Zrotation Xrotation Yrotation
                    End Site
                    {
                        OFFSET 0.0 -0.1 0.0
                    }
                }
            }
        }
    }
    JOINT lowerback
    {
        OFFSET 0.0 0.0 0.1
        CHANNELS 3 Zrotation Xrotation Yrotation
        JOINT Chest
        {
            OFFSET 0.0 0.0 0.2673105299472809
            CHANNELS 3 Zrotation Xrotation Yrotation
            JOINT Chest2
            {
                OFFSET 0.0 0.0 0.25164544582366943
                CHANNELS 3 Zrotation Xrotation Yrotation
                JOINT LeftCollar
                {
                    OFFSET 0.1 0.0 0.0
                    CHANNELS 3 Zrotation Xrotation Yrotation
                    JOINT LeftShoulder
                    {
                        OFFSET 0.170615553855896 0.0 0.0
                        CHANNELS 3 Zrotation Xrotation Yrotation
                        JOINT LeftElbow
                        {
                            OFFSET 0.34049558639526367 0.0 0.0
                            CHANNELS 3 Zrotation Xrotation Yrotation
                            JOINT LeftWrist
                            {
                                OFFSET 0.26492470502853394 0.0 0.0
                                CHANNELS 3 Zrotation Xrotation Yrotation
                                End Site
                                {
                                    OFFSET 0.1 0.0 0.0
                                }
                            }
                        }
                    }
                }
                JOINT Neck
                {
                    OFFSET 0.0 0.0 0.1
                    CHANNELS 3 Zrotation Xrotation Yrotation
                    JOINT Head
                    {
                        OFFSET 0.0 0.0 0.2987827956676483
                        CHANNELS 3 Zrotation Xrotation Yrotation
                        End Site
                        {
                            OFFSET 0.0 0.0 0.17764617502689362
                        }
                    }
                }
                JOINT RightCollar
                {
                    OFFSET -0.1 0.0 0.0
                    CHANNELS 3 Zrotation Xrotation Yrotation
                    JOINT RightShoulder
                    {
                        OFFSET -0.170615553855896 0.0 0.0
                        CHANNELS 3 Zrotation Xrotation Yrotation
                        JOINT RightElbow
                        {
                            OFFSET -0.34049558639526367 0.0 0.0
                            CHANNELS 3 Zrotation Xrotation Yrotation
                            JOINT RightWrist
                            {
                                OFFSET -0.26492470502853394 0.0 0.0
                                CHANNELS 3 Zrotation Xrotation Yrotation
                                End Site
                                {
                                    OFFSET -0.1 0.0 0.0
                                }
                            }
                        }
                    }
                }
            }
        }
    }
    JOINT RHipJoint
    {
        OFFSET -0.1 0.0 0.0
        CHANNELS 3 Zrotation Xrotation Yrotation
        JOINT RightHip
        {
            OFFSET -0.10700888931751251 0.0 0.0
            CHANNELS 3 Zrotation Xrotation Yrotation
            JOINT RightKnee
            {
                OFFSET 0.0 0.0 -0.2152610421180725
                CHANNELS 3 Zrotation Xrotation Yrotation
                JOINT RightAnkle
                {
                    OFFSET 0.0 0.0 -0.4577053189277649
                    CHANNELS 3 Zrotation Xrotation Yrotation
                    End Site
                    {
                        OFFSET 0.0 -0.1 0.0
                    }
                }
            }
        }
    }
}
MOTION
Frames: 5
Frame Time: 0.06666666666666667
2.1156771254027262e-05 0.23069892823696136 -5.747804243583232e-05 -3.056878931337375 -0.24292500429024802 -6.478277020380631 -3.9756933518293955e-16 -4.9696166897867443e-17 1.941256519447947e-16 32.31855410208525 52.688327461152255 31.520338742425842 -109.97459243286298 -18.681478686025848 -97.43456632464434 0.0 -3.975693351829396e-16 0.0 -3.9756933518293955e-16 -4.9696166897867443e-17 1.941256519447947e-16 2.7858097512028572 6.774314032426403 0.7220617722663837 4.699032605269222 -1.3554717572137e-07 4.782717577550181e-07 -1.616420763446103e-33 7.454425034680117e-16 2.484808344893372e-16 147.0491955014491 -68.50603953965529 24.59278269355911 -91.06256200512878 -6.459431005822311e-07 1.4749757704569352e-06 0.0 0.0 -3.1805546814635168e-15 -1.616420763446103e-33 7.454425034680117e-16 2.484808344893372e-16 -140.05583794053146 -86.19690545498648 -136.9878464839191 -1.616420763446103e-33 7.454425034680117e-16 2.484808344893372e-16 -47.42231545069392 -84.63469549591122 81.04846547502699 60.94815993526084 -1.4685589062745929e-06 1.1434092123373098e-06 3.1805546814635168e-15 3.1805546814635168e-15 1.5902773407317584e-15 -3.9756933518293955e-16 -4.9696166897867443e-17 1.941256519447947e-16 63.31744896288324 65.37880302498829 -113.42841869723951 135.78683252527506 -31.985985493594832 77.4138288086755 3.975693351829396e-16 4.827710013492361e-33 1.3914926731402886e-15
1.8578695744508877e-05 0.23069636523723602 -5.7194745750166476e-05 -2.9551759516882607 -0.3670191414021008 -6.639849395634289 -2.788325816944528e-34 -9.93923337957349e-17 -3.214720796205801e-16 34.06801290092831 52.789404634187015 30.388514813432472 -111.80769468994512 -17.812269847421668 -97.4246734909383 -3.1805546814635164e-15 -3.975693351829395e-16 -7.951386703658791e-16 -2.788325816944528e-34 -9.93923337957349e-17 -3.214720796205801e-16 2.9017031887497686 6.761169733911502 0.9632929939357275 3.5169941585605016 1.0468842903705819e-06 3.605982516471773e-08 7.951386703658792e-16 7.951386703658792e-16 -2.2363275104040355e-16 153.31559537154365 -68.51681148892817 28.045674281731067 -93.67024495182393 -1.1901827400052032e-06 9.772267788443426e-07 0.0 0.0 -1.5902773407317584e-15 7.951386703658792e-16 7.951386703658792e-16 -2.2363275104040355e-16 -121.16659168965013 -86.10671228443692 -118.59767067965845 7.951386703658792e-16 7.951386703658792e-16 -2.2363275104040355e-16 -43.64990619719482 -83.54030835635807 85.00827971422711 59.130903390054954 1.5192277554802716e-08 4.3335557597772015e-06 0.0 0.0 8.74652537402467e-15 -2.788325816944528e-34 -9.93923337957349e-17 -3.214720796205801e-16 62.887252896778925 64.35321963792349 -114.25047889417058 133.81339017042066 -31.92399875254603 75.17209637886074 -3.975693351829396e-15 -1.9878466759146975e-16 -1.5902773407317584e-15
2.193469481426291e-05 0.23070469498634338 -6.221828516572714e-05 -5.015956648646214 -0.699077160902229 -5.518066398687603 -7.951386703658792e-16 3.620782510119271e-33 -5.218097524276082e-16 27.067003645978023 48.166770998483706 32.10754926460008 -104.60364247945408 -22.554473873875487 -97.67082422652737 -2.758691436281349e-33 -3.975693351829395e-16 -7.95138670365879e-16 -7.951386703658792e-16 3.620782510119271e-33 -5.218097524276082e-16 3.091739700212671 7.501080903140647 -1.297858035899442 6.013064417989623 -1.9962823868569732e-07 -3.101492311771772e-07 0.0 0.0 5.466578358765419e-16 129.11680812958022 -61.86160953437302 3.741064404373555 -50.60399907335019 -1.0688941749470138e-06 2.9456055397556194e-07 6.069121159818968e-32 6.3611093629270335e-15 -1.0933156717530838e-15 0.0 0.0 5.466578358765419e-16 -88.5199409682039 -84.36752220049303 -81.9801938874066 0.0 0.0 5.466578358765419e-16 -51.85906645210353 -81.30280453611049 75.12836428300312 55.562528194672 -5.259788717871875e-06 3.7094270824852645e-06 0.0 0.0 1.590277340731758e-15 -7.951386703658792e-16 3.620782510119271e-33 -5.218097524276082e-16 68.89537923894422 66.28722128854689 -114.2449947034886 139.58113439060534 -33.9828755861324 79.21949949351072 0.0 0.0 8.150171371250263e-15
2.5909190298989415e-05 0.23071302473545074 -6.624429079238325e-05 -8.054916215687898 -3.1520142951751855 -6.2079317949684825 -3.4483642953516864e-34 -3.975693351829396e-16 -9.93923337957349e-17 25.332972320908155 49.45951155980803 33.93411721161621 -100.07566534529171 -23.573990474151763 -97.12687181536505 -2.2069531490250793e-31 -6.3611093629270335e-15 -3.975693351829396e-15 -3.4483642953516864e-34 -3.975693351829396e-16 -9.93923337957349e-17 4.438924937204608 11.861605079849502 0.23292128660867026 4.746531657039461 -6.685315180443059e-07 -3.12826316907716e-07 0.0 0.0 -9.93923337957349e-16 125.51154942242377 -50.19526849364704 -2.3167865295959706 -15.224180926311035 4.203717775107909e-06 -2.0589873883615675e-06 -6.3611093629270335e-15 0.0 0.0 0.0 0.0 -9.93923337957349e-16 -91.81757455042471 -76.81103878767667 -86.37672251399515 0.0 0.0 -9.93923337957349e-16 -66.59346523612962 -79.85913799765628 54.497884375158065 56.99909507691439 -5.485484013922412e-06 -1.522928651226961e-07 6.3611093629270335e-15 -7.282945391782762e-31 -1.3119788061037007e-14 -3.4483642953516864e-34 -3.975693351829396e-16 -9.93923337957349e-17 80.22269922151717 69.5013672124761 -122.382306206979 142.93607751311706 -34.03134454335857 81.03772934480916 0.0 0.0 1.5902773407317584e-15
1.8096023268299177e-05 0.23071937263011932 -7.601908873766661e-05 -8.431169468106162 -3.0382339233672533 -8.361184824034057 4.827710013492361e-33 -7.951386703658794e-16 6.957463365701445e-16 17.09525423173854 48.110056630740694 40.92060967423395 -98.08539635085508 -26.13761783911471 -101.42351881849477 0.0 0.0 7.951386703658791e-16 4.827710013492361e-33 -7.951386703658794e-16 6.957463365701445e-16 2.7065712506825657 10.049319943119452 3.95486118433782 2.4357700353447735 3.4492858077160873e-07 -4.7008013002960996e-08 3.975693351829396e-16 7.951386703658792e-16 -3.4787316828507215e-16 145.93416095843895 2.442101909667107 -9.796762641421447 -28.170731036227355 -2.4482337151612354e-06 -1.7337409791933902e-06 -6.3611093629270335e-15 8.827812596100317e-32 -1.5902773407317584e-15 3.975693351829396e-16 7.951386703658792e-16 -3.4787316828507215e-16 -92.2973720444828 -75.15965418926748 -91.48495176974014 3.975693351829396e-16 7.951386703658792e-16 -3.4787316828507215e-16 -75.14105869186011 -76.38586256115272 44.92737036487169 53.32519450911705 -9.618816120728574e-07 -5.260150556224687e-06 0.0 0.0 -1.9878466759146976e-15 4.827710013492361e-33 -7.951386703658794e-16 6.957463365701445e-16 91.6393751572085 75.09610181601758 -129.02555238691318 152.50945562824725 -30.895325777267036 87.11464833865493 2.385416011097637e-15 -5.9635400277440935e-15 -4.770832022195275e-15
